<svg width="115" height="62" viewBox="0 0 115 62" fill="none" xmlns="http://www.w3.org/2000/svg">
<g clip-path="url(#clip0_3513_5130)">
<path d="M113.554 49.377V51.0228H109.834V52.9979H112.616V54.6437H109.834V58.3305H107.629V49.377H113.554Z" fill="#434343"/>
<path d="M55.8543 0V2.60048C55.8543 2.17255 55.6239 1.92567 54.9491 1.99151C52.2499 2.23839 49.5671 2.40297 46.9008 2.89673C46.2918 3.0284 46.0779 3.14362 46.2589 3.85134C46.7197 5.67826 47.0489 7.55455 47.4604 9.39793C47.625 10.155 47.5756 10.7969 46.7033 10.945C45.831 11.0932 45.617 10.583 45.4689 9.85877C45.1068 7.96602 44.6295 6.08973 44.2839 4.19697C44.1522 3.57154 43.9711 3.45633 43.3622 3.60446C40.5149 4.32313 37.7121 5.20793 34.9682 6.25431C34.3263 6.50119 34.2605 6.76453 34.5568 7.35705C35.3632 9.00292 36.1039 10.7969 36.8774 12.5251C37.1901 13.1834 37.3876 13.8747 36.5647 14.171C35.7418 14.4672 35.2809 13.9241 34.9188 13.2328C34.1617 11.5869 33.3717 9.94107 32.6805 8.16353C32.3677 7.40642 32.0715 7.37351 31.3802 7.71914C29.0852 8.87371 26.8495 10.1426 24.6815 11.5211C23.9903 11.949 23.8915 12.2288 24.4182 12.9366C26.4097 15.537 28.3354 18.2033 30.261 20.8697C31.051 21.9559 30.9852 22.9105 30.0964 23.5031C29.2077 24.0956 28.3683 23.7664 27.6276 22.7624C25.8336 20.3265 24.0396 17.8248 22.2292 15.4383C21.8671 14.961 21.6531 14.3191 21.0112 14.0557C20.6935 13.9133 20.4236 13.6823 20.2339 13.3904C20.0441 13.0985 19.9426 12.758 19.9414 12.4099C26.1966 7.52795 33.4251 4.04279 41.1402 2.18901C45.9546 0.945301 50.8864 0.211592 55.8543 0Z" fill="#ED2024"/>
<path d="M113.644 44.0276C110.352 44.9493 107.241 46.052 104.048 47.0725L103.571 47.2535C102.32 47.6156 101.53 47.2535 101.201 46.3318C100.872 45.4101 101.3 44.6859 102.551 44.1922C105.381 43.254 108.212 42.2994 111.06 41.4436C112.047 41.1473 112.278 40.7852 111.932 39.7977C111.158 37.6252 110.286 35.4691 109.397 33.3623C109.134 32.7863 108.92 32.6217 108.311 33.0003C106.813 33.9384 105.25 34.7778 103.719 35.6501C103.094 36.0287 102.435 36.2426 101.958 35.4855C101.481 34.7284 102.09 34.2511 102.682 33.8396C104.328 32.918 105.793 31.9963 107.389 31.1404C107.982 30.8277 107.998 30.5808 107.686 30.0212C106.208 27.5124 104.558 25.1092 102.748 22.8288C102.254 22.2033 101.958 22.3844 101.464 22.8288C100.115 24.0961 98.7157 25.314 97.3496 26.5649C96.79 27.0751 96.1316 27.3878 95.5885 26.7295C95.0454 26.0711 95.4239 25.5115 95.9835 25.0836C97.4154 23.8327 98.8144 22.549 100.246 21.3146C100.757 20.8702 100.74 20.6068 100.246 20.1295C98.4852 18.3026 96.6254 16.5909 94.6997 14.945C94.0743 14.4184 93.7451 14.5171 93.2843 15.1755C91.4574 17.7595 89.5646 20.2777 87.6883 22.8288C86.9147 23.8657 85.9437 24.129 85.1207 23.5365C84.2978 22.944 84.2649 22.0058 85.1207 20.8866C87.0409 18.2862 88.9501 15.7131 90.8484 13.1675C91.2434 12.6244 91.2763 12.3446 90.6344 11.9495C88.3025 10.4477 85.8905 9.07414 83.409 7.83487C82.6849 7.47278 82.4051 7.62091 82.1088 8.32863C81.3846 9.9745 80.5781 11.7685 79.821 13.4967C79.5412 14.155 79.1462 14.6488 78.3891 14.3361C77.632 14.0233 77.632 13.365 77.9612 12.6902C78.7512 11.0443 79.4754 9.23386 80.2819 7.52215C80.5617 6.91318 80.6111 6.61692 79.854 6.33712C77.1138 5.27559 74.3104 4.38511 71.46 3.67081C70.8181 3.50623 70.7029 3.67081 70.5877 4.3127C70.2256 6.20546 69.7648 8.08175 69.3862 9.9745C69.2381 10.7151 68.8924 11.176 68.1353 11.0279C67.3782 10.8797 67.2301 10.2708 67.3947 9.56303C67.8062 7.62091 68.1847 5.69523 68.6291 3.76956C68.7279 3.29226 68.6291 3.14413 68.1683 3.02892C65.3868 2.54309 62.578 2.22977 59.7579 2.09078C58.9843 2.09078 59.0008 2.50224 59.0008 3.04538C59.0008 6.23837 59.0008 9.44782 59.0008 12.6573C59.0008 13.9904 58.4741 14.6652 57.4701 14.6982C56.4661 14.7311 55.8242 14.0069 55.8242 12.6244V7.78549C55.8242 6.13962 55.8242 4.62542 55.8242 3.04538C55.8331 2.89739 55.8331 2.74899 55.8242 2.601V0.000517964C69.8904 -0.547468 83.7004 3.87522 94.8314 12.4927C104.678 19.7534 111.667 30.2367 114.582 42.1184C114.927 43.1882 114.862 43.682 113.644 44.0276Z" fill="#434343"/>
<path d="M19.9895 12.543C20.444 13.0214 20.8067 13.5793 21.0594 14.1888C19.002 16.0322 16.8953 17.8262 14.9202 19.7848C14.0315 20.6571 14.2125 21.1015 15.0519 21.7928C16.3522 22.8626 17.5536 24.0147 18.821 25.0845C19.3641 25.5618 19.8414 26.105 19.2818 26.7304C18.7222 27.3558 18.0145 27.076 17.4384 26.5658C16.1053 25.3972 14.805 24.2287 13.439 23.0436C12.8629 22.5005 12.5667 22.3853 11.9906 23.0436C10.2615 25.2572 8.67287 27.5769 7.23403 29.9892C6.83902 30.6476 7.05298 30.9438 7.61258 31.2565C9.1597 32.1288 10.6904 32.9847 12.2046 33.8735C12.8135 34.2191 13.4225 34.647 12.9452 35.5193C12.4679 36.3917 11.7766 36.0789 11.1512 35.7333C9.65346 34.9104 8.15571 34.0874 6.69089 33.1493C5.99962 32.7214 5.75274 32.8201 5.42357 33.5772C4.44821 35.7192 3.60182 37.9176 2.88892 40.1607C2.64204 40.9507 2.88892 41.2305 3.58019 41.428L12.0729 44.1108C12.9617 44.3906 13.7188 44.7527 13.7188 45.8883C13.7471 46.1437 13.7092 46.402 13.6088 46.6385C13.5085 46.8749 13.349 47.0816 13.1456 47.2386C12.9423 47.3957 12.7021 47.4978 12.4479 47.5351C12.1937 47.5725 11.9342 47.5438 11.6943 47.4519C7.97467 46.2998 4.27145 45.0654 0.551784 43.8804C-0.0078125 43.6335 -0.0078125 43.3537 -0.0078125 42.7941C1.83388 34.9325 5.47961 27.6072 10.641 21.3978C13.3499 18.0439 16.4938 15.0661 19.9895 12.543Z" fill="#ED2024"/>
<path d="M61.6839 26.2349C61.5687 26.1033 61.437 25.9716 61.2724 26.2349C61.1078 26.4983 61.2724 26.4818 61.3712 26.597C61.5218 26.7257 61.6646 26.8631 61.7991 27.0085C62.1447 27.4529 62.836 27.6998 62.8689 28.2923C62.8689 29.6584 62.8689 31.0409 62.8689 32.407C62.8689 32.6374 62.7866 32.8184 62.5397 32.8184C62.2929 32.8184 62.1941 32.588 62.1941 32.3411C62.1941 31.8309 62.1941 31.3207 62.1941 30.8105C62.1941 30.3002 62.0295 29.9052 61.4206 29.9711C60.8116 30.0369 60.8939 29.6254 60.8939 29.2304C60.8939 28.2264 60.8939 27.2225 60.8939 26.2349C60.9237 26.0118 60.9016 25.7847 60.8295 25.5715C60.7573 25.3582 60.6369 25.1644 60.4777 25.0052C60.3185 24.846 60.1248 24.7256 59.9115 24.6535C59.6982 24.5813 59.4712 24.5593 59.248 24.5891H56.3019C55.1333 24.5891 54.656 25.1157 54.656 26.2349V33.5262C54.656 34.2833 54.8864 35.172 53.6027 35.0404C53.6027 35.0404 53.6027 35.1227 53.5039 35.172C53.5332 35.25 53.5885 35.3155 53.6604 35.3575C53.7324 35.3995 53.8166 35.4153 53.8989 35.4024H61.5522C61.7333 35.4024 61.9472 35.4024 61.9637 35.2049C61.9802 35.0074 61.7333 34.9745 61.5358 34.9416C61.3383 34.9087 60.8939 35.172 60.8939 34.5631C60.8939 33.2793 60.8939 31.9955 60.8939 30.7117C60.8939 30.3496 61.0585 30.2838 61.3712 30.2838C61.6839 30.2838 61.832 30.399 61.8156 30.7282C61.7991 31.0573 61.8156 31.8144 61.8156 32.374C61.8156 32.9336 62.0789 33.2134 62.5891 33.197C63.0993 33.1805 63.3298 32.8678 63.3298 32.3411C63.231 31.3726 63.231 30.3965 63.3298 29.4279C63.6096 27.9796 62.5397 27.1237 61.6839 26.2349ZM59.248 27.9796C58.7707 27.9796 58.2769 27.9796 57.7996 27.9796H57.1084C55.7423 27.9796 55.4625 27.5187 55.7752 26.1691C55.8184 25.9703 55.9324 25.7939 56.0958 25.6728C56.2593 25.5518 56.4612 25.4941 56.664 25.5108C57.4211 25.5108 58.2111 25.5108 58.9682 25.5108C59.0984 25.4935 59.2308 25.507 59.3548 25.5502C59.4788 25.5935 59.591 25.6652 59.6822 25.7596C59.7735 25.8541 59.8413 25.9686 59.8802 26.0941C59.9191 26.2195 59.9281 26.3523 59.9064 26.4818C59.8816 26.7666 59.8816 27.0529 59.9064 27.3377C59.8734 27.8479 59.643 27.9796 59.248 27.9796Z" fill="#F8991D"/>
<path d="M57.4455 22.7617C57.4455 23.8315 57.4455 24.8849 57.3303 25.9383C57.0999 29.411 56.8365 32.8674 56.6226 36.3402C56.2934 41.6947 55.9752 47.0438 55.668 52.3874C56.7845 51.8769 58.0216 51.6888 59.2395 51.8443C59.3707 51.8284 59.5033 51.8284 59.6345 51.8443C59.9047 52.1383 60.2529 52.3495 60.6385 52.4533C60.7702 52.1899 60.6385 51.976 60.5562 51.7291C59.6784 43.0828 58.8226 34.4145 57.9886 25.7243L57.7911 22.7617H57.4455Z" fill="#ED2024"/>
<path d="M4.02187 51.0228V52.8662H7.0009V54.5121H4.02187V56.5036H7.31362V58.2811H1.81641V49.377H7.37945V51.0228H4.02187Z" fill="#ED2024"/>
<path d="M55.6729 52.3883C56.1396 51.9434 56.7198 51.6358 57.3499 51.4994C57.98 51.3629 58.6356 51.4028 59.2445 51.6148C59.7451 51.8061 60.1915 52.1169 60.5447 52.52C60.9938 53.2533 61.1549 54.1271 60.9968 54.9724C60.8387 55.8176 60.3727 56.5741 59.6889 57.0955C59.2489 57.4365 58.7117 57.6284 58.1552 57.6432C57.5987 57.658 57.0521 57.495 56.5946 57.1778C55.9011 56.6162 55.4283 55.8276 55.2596 54.9513C55.091 54.075 55.2374 53.1672 55.6729 52.3883Z" fill="#434343"/>
<path d="M58.1552 55.121C58.6552 55.121 59.0605 54.7157 59.0605 54.2158C59.0605 53.7158 58.6552 53.3105 58.1552 53.3105C57.6553 53.3105 57.25 53.7158 57.25 54.2158C57.25 54.7157 57.6553 55.121 58.1552 55.121Z" fill="white"/>
<path d="M56.625 57.1777C57.1188 58.8236 57.629 60.3872 58.1227 62.0001H58.4355L59.7192 57.0625C58.7145 57.3639 57.6494 57.4036 56.625 57.1777Z" fill="#ED2024"/>
</g>
<defs>
<clipPath id="clip0_3513_5130">
<rect width="115" height="62" fill="white"/>
</clipPath>
</defs>
</svg>
