<svg width="157" height="50" viewBox="0 0 157 50" fill="none" xmlns="http://www.w3.org/2000/svg">
<path d="M27.841 26.9586C24.1515 26.9586 20.4621 26.9586 16.7845 26.9586C15.4761 26.9586 14.9574 26.4517 14.8396 25.2023C14.4506 21.2299 14.7453 20.8763 18.753 20.9235C24.1398 20.9824 29.5148 21.1003 34.9016 21.1121C35.6575 21.003 36.3927 20.7804 37.0822 20.452C36.5162 19.934 35.8864 19.4903 35.208 19.1318C29.668 17.069 24.0808 15.1359 18.5644 13.0495C17.7088 12.761 16.9226 12.2975 16.2559 11.6886C15.5892 11.0797 15.0565 10.3386 14.6918 9.51266C14.327 8.68668 14.1381 7.79383 14.1372 6.89089C14.1363 5.98796 14.3233 5.09472 14.6863 4.26799C15.7943 1.3801 18.3286 0.602134 21.0868 0.331026C22.7606 0.177791 24.4698 0.236727 26.1672 0.236727C32.0373 0.236727 37.9073 0.236727 43.7774 0.236727C45.6045 0.236727 45.852 0.507835 45.8991 2.34666C46.017 6.23647 45.9699 6.30719 42.1626 6.28362C36.9761 6.28362 31.7858 6.25611 26.5915 6.20111C26.2011 6.13914 25.8033 6.13914 25.4128 6.20111C24.8764 6.41414 24.3563 6.66628 23.8569 6.95549C24.2576 7.3209 24.5995 7.86312 25.0356 8.03993C28.4893 9.30117 31.9901 10.4563 35.4438 11.7294C37.9898 12.6488 40.5359 13.5918 42.9995 14.6998C47.3372 16.6447 48.0208 22.8448 44.0485 25.4262C42.4063 26.3408 40.5647 26.8387 38.6853 26.8761C35.1255 27.1118 31.4715 26.9586 27.841 26.9586Z" fill="#EB2029"/>
<path d="M98.082 20.8288C99.1429 20.8995 100.216 21.0292 101.288 21.0292C106.581 21.0292 111.897 20.9231 117.142 20.8759C119.063 20.8759 119.181 20.9938 119.311 22.9152C119.57 26.5928 119.311 26.8639 115.775 26.8875C108.702 26.8875 101.713 26.97 94.6755 26.8875C93.225 26.8444 91.7931 26.5493 90.4438 26.0152C89.6961 25.7226 89.0318 25.2505 88.5097 24.6404C87.9876 24.0304 87.6237 23.3012 87.4501 22.5172C87.2766 21.7332 87.2986 20.9185 87.5144 20.1451C87.7302 19.3716 88.1331 18.6632 88.6875 18.0824C90.1253 16.729 91.7734 15.6183 93.5675 14.7937C98.6714 12.3537 103.881 10.0788 109.032 7.72131C109.516 7.50914 109.822 6.91977 110.211 6.54258C109.692 6.28135 109.135 6.10241 108.561 6.01215C102.667 6.01215 96.7736 6.01215 90.8092 6.10645C88.5814 6.10645 88.1453 5.65853 88.3339 3.44251C88.5579 0.354239 87.6502 0.106705 91.7522 0.130279C99.0132 0.177429 106.203 0.130279 113.417 0.283514C114.964 0.297859 116.477 0.738334 117.79 1.55654C121.209 3.91401 120.737 8.62893 116.8 11.0571C113.995 12.683 111.102 14.1546 108.137 15.4656C105.331 16.7975 102.455 17.9527 99.6262 19.2257C99.0292 19.5424 98.4577 19.9049 97.917 20.3102L98.082 20.8288Z" fill="#EB2029"/>
<path d="M51.7118 10.6095C51.7118 7.80415 51.7118 4.98698 51.7118 2.1816C51.6528 0.708188 52.2893 0.107035 53.6567 0.118822C55.2597 0.118822 56.851 0.118822 58.4541 0.189546C60.0572 0.26027 60.399 0.625676 60.3872 2.21696C60.3872 5.81209 60.3872 9.39543 60.3872 12.9788C60.3872 14.4876 60.3872 15.9845 60.4933 17.4815C60.4595 17.8741 60.5055 18.2694 60.6284 18.6437C60.7512 19.0181 60.9485 19.3637 61.2084 19.6599C61.4682 19.956 61.7852 20.1966 62.1404 20.3672C62.4955 20.5377 62.8815 20.6347 63.2751 20.6523C65.7799 20.8743 68.2981 20.9018 70.8072 20.7348C72.7875 20.5934 73.7305 19.0728 73.7422 16.5621C73.7422 12.3423 73.7422 8.12241 73.7422 3.91434C73.7422 0.0834602 73.7422 0.0834602 77.6203 0.130609L81.1565 0.189546C81.3281 0.184408 81.4989 0.216851 81.6567 0.284603C81.8145 0.352355 81.9556 0.453779 82.0702 0.581778C82.1847 0.709776 82.2698 0.861257 82.3197 1.02562C82.3696 1.18998 82.3829 1.36325 82.3588 1.5333C82.3588 7.59198 82.4766 13.6624 82.1937 19.7093C81.9934 24.0706 79.9306 26.2277 74.921 26.6403C69.3717 27.0469 63.7993 27.0233 58.2537 26.5695C54.1046 26.2513 52.1243 23.6227 51.8061 19.4972C51.8061 19.12 51.7471 18.731 51.7471 18.3184C51.7471 15.7488 51.7471 13.1792 51.7471 10.6095H51.7118Z" fill="#EB2029"/>
<path d="M156.441 9.96136C156.253 13.3915 156.264 16.8451 155.805 20.2399C155.689 22.0128 154.885 23.6702 153.563 24.8575C152.241 26.0448 150.508 26.6678 148.732 26.5933C143.652 26.7465 138.56 26.8172 133.491 26.5933C128.776 26.4047 126.419 24.3301 126.124 19.6623C125.735 13.6744 125.853 7.66283 125.759 1.6513C125.737 1.46094 125.756 1.26804 125.815 1.08578C125.874 0.903512 125.972 0.73617 126.102 0.595177C126.232 0.454185 126.391 0.342864 126.567 0.268813C126.744 0.194763 126.935 0.159728 127.126 0.166101C129.059 0.0953772 131.004 0.048228 132.937 0.0600153C134.116 0.0600153 134.482 0.731892 134.47 1.87526C134.47 6.33086 134.47 10.7865 134.47 15.2539C134.47 19.7213 135.542 20.9 140.151 20.8646C141.701 20.8807 143.25 20.7783 144.784 20.5581C145.179 20.5543 145.569 20.4671 145.929 20.3025C146.288 20.1378 146.609 19.8993 146.871 19.6024C147.132 19.3055 147.328 18.957 147.445 18.5794C147.563 18.2018 147.6 17.8037 147.554 17.4109C147.683 12.7667 147.683 8.11075 147.73 3.46655C147.73 0.0128662 147.73 -0.0107086 151.267 0.00107874C152.445 0.00107874 153.624 0.0953772 154.803 0.0953772C155.982 0.0953772 156.418 0.637594 156.394 1.80454C156.394 4.51562 156.394 7.23849 156.394 9.94957L156.441 9.96136Z" fill="#EB2029"/>
<path d="M0.0705326 13.6392C0.0705326 9.94976 0.0705326 6.27212 0.0705326 2.59448C0.0705326 0.366676 0.21198 0.237015 2.48693 0.237015C3.98392 0.237015 5.49269 0.237015 6.98968 0.237015C8.25093 0.166291 8.91101 0.661358 8.91101 2.07584C8.91101 9.67865 8.91101 17.2815 8.91101 24.8843C8.91101 26.7231 8.62812 27.0178 6.83645 27.0296C5.04478 27.0414 3.536 27.0296 1.89757 27.0296C0.51845 27.1121 0.0587453 26.5345 0.0705326 25.2497C0.0705326 21.3835 0.0705326 17.5054 0.0705326 13.6392Z" fill="#EB2029"/>
<path d="M38.7809 36.9307C40.0893 36.9307 41.3976 36.9307 42.706 36.9307C43.2231 36.9066 43.731 37.0734 44.1331 37.3994C44.5352 37.7254 44.8034 38.1879 44.8867 38.6988C44.8972 39.2309 44.8175 39.761 44.6509 40.2665C43.9909 40.0897 43.319 39.9482 42.6589 39.7243C42.2935 39.6064 41.9634 39.2174 41.6098 39.2056C39.7238 39.2056 37.8379 39.2056 35.9401 39.2056C34.8557 39.2056 34.6671 39.7243 34.6789 40.6555C34.6907 41.5867 34.7732 42.1407 35.8576 42.1171C37.944 42.0582 40.0303 42.1171 42.1167 42.1171C44.203 42.1171 44.9103 42.9304 44.981 44.9461V45.2407C45.0517 49.1423 44.5802 49.6256 40.7258 49.6138H34.8321C34.288 49.6643 33.7447 49.5097 33.3086 49.1805C32.8726 48.8513 32.5751 48.371 32.4747 47.834C32.4644 47.294 32.5605 46.7573 32.7576 46.2545C33.4059 46.4077 34.0542 46.5256 34.6789 46.7142C35.0443 46.832 35.3743 47.2328 35.7162 47.2446C37.6611 47.2446 39.5942 47.2446 41.5391 47.2446C42.7178 47.2446 42.6353 46.4902 42.7178 45.6769C42.8003 44.8635 42.541 44.3213 41.5391 44.3449C39.4056 44.3449 37.2721 44.3449 35.1386 44.3449C33.3941 44.3449 32.4864 43.5198 32.4511 41.8224C32.3804 38.2862 31.8853 36.5653 37.0953 36.8718C37.6729 36.8718 38.274 36.8718 38.8398 36.8718L38.7809 36.9307Z" fill="black"/>
<path d="M103.857 49.5078V36.9189H110.8C111.861 36.9189 112.922 36.9189 113.995 36.9189C114.62 36.9189 115.219 37.1673 115.661 37.6094C116.104 38.0515 116.352 38.6512 116.352 39.2764C116.352 40.0544 116.352 40.8323 116.352 41.6339C116.352 44.2271 116.057 44.5571 113.535 45.5001L116.517 49.331C114.82 49.8025 113.606 49.7435 112.733 48.3408C112.45 47.8929 111.944 47.5747 111.72 47.1621C110.67 45.0168 108.761 45.1347 106.863 45.3115C106.663 45.374 106.48 45.4821 106.329 45.6273C106.177 45.7726 106.062 45.9509 105.991 46.1484C105.908 46.6716 105.908 47.2047 105.991 47.7279C106.085 49.7318 106.085 49.7318 103.857 49.5078ZM110.058 42.9305C111.024 42.9305 112.002 42.9305 112.969 42.9305C113.936 42.9305 114.148 42.6004 114.077 41.7517C114.149 41.2751 114.149 40.7903 114.077 40.3137C113.9 39.8893 113.452 39.3118 113.087 39.2882C111.107 39.1821 109.115 39.2057 107.193 39.2882C106.997 39.3078 106.808 39.3735 106.642 39.48C106.476 39.5866 106.338 39.7309 106.238 39.9011C105.519 41.9875 106.238 42.9305 108.431 42.9305H110.058Z" fill="black"/>
<path d="M74.4839 49.4016C72.1972 49.8024 72.1265 49.7199 72.1265 47.716C72.1265 45.1464 72.1265 42.5768 72.1265 40.0071C72.1265 37.744 72.9752 36.9307 75.203 36.9189C77.4308 36.9071 79.8589 36.9189 82.181 36.9189C82.5362 36.8701 82.8977 36.903 83.2382 37.015C83.5787 37.127 83.8892 37.3152 84.146 37.5652C84.4029 37.8152 84.5993 38.1205 84.7204 38.4579C84.8416 38.7952 84.8842 39.1558 84.845 39.5121C84.845 42.4589 84.845 45.4057 84.845 48.3761C84.845 49.3545 84.4442 49.6138 83.5248 49.6256C82.6054 49.6374 82.4286 49.1777 82.405 48.3761C82.3225 45.3232 82.2989 45.3232 79.1753 45.3232C78.1587 45.3881 77.139 45.3881 76.1224 45.3232C74.6961 45.1346 74.3425 45.7594 74.4839 47.0324C74.525 47.8216 74.525 48.6124 74.4839 49.4016ZM82.3814 39.3235C81.9924 39.2528 81.8981 39.2174 81.8039 39.2174C80.2126 39.2174 78.6095 39.2174 77.0182 39.2174C74.0478 39.2174 74.4957 38.7105 74.5311 42.0346C74.6004 42.2646 74.7263 42.4735 74.8972 42.6424C75.0681 42.8112 75.2786 42.9346 75.5094 43.0011C77.4897 43.0954 79.47 43.0836 81.4031 43.0011C81.6078 42.9622 81.7986 42.8697 81.956 42.7331C82.1134 42.5964 82.2317 42.4205 82.2989 42.2232C82.3866 41.2593 82.4142 40.2908 82.3814 39.3235Z" fill="black"/>
<path d="M155.887 44.0148C155.887 45.4647 155.887 46.9145 155.887 48.3761C155.887 49.1895 155.698 49.6374 154.708 49.6374C153.718 49.6374 153.53 49.3663 153.53 48.4586C153.4 45.3114 153.365 45.3114 150.241 45.3114C149.062 45.3114 148.001 45.3114 146.893 45.3114C145.785 45.3114 145.396 45.724 145.479 46.7731C145.479 47.2563 145.479 47.7396 145.479 48.2229C145.479 49.0362 145.396 49.6138 144.3 49.6256C143.204 49.6374 143.121 49.1423 143.121 48.2818C143.121 45.4293 143.121 42.565 143.121 39.7124C143.07 39.3361 143.106 38.953 143.226 38.5926C143.345 38.2321 143.546 37.9039 143.812 37.6331C144.079 37.3622 144.403 37.156 144.762 37.0301C145.12 36.9043 145.502 36.8622 145.88 36.9071C148.237 36.9071 150.595 36.9071 152.952 36.9071C154.897 36.9071 155.734 37.7793 155.757 39.7714C155.757 41.1741 155.757 42.5886 155.757 43.9912L155.887 44.0148ZM149.451 43.0247C150.276 43.0247 151.101 42.954 151.927 43.0247C153.188 43.1426 153.73 42.6475 153.577 41.3745C153.577 40.9973 153.695 40.5376 153.577 40.1957C153.459 39.8539 152.928 39.2174 152.563 39.1938C150.583 39.0877 148.591 39.1113 146.669 39.1938C146.456 39.2252 146.253 39.3082 146.078 39.4355C145.904 39.5628 145.763 39.7307 145.667 39.9246C145.007 42.2114 145.667 42.9893 148.025 42.9893L149.451 43.0247Z" fill="black"/>
<path d="M25.9321 49.8501C25.9321 48.4239 25.9321 47.4927 25.9321 46.5143C25.9321 45.536 25.7082 45.3356 24.8595 45.3356C22.9264 45.3356 20.9815 45.3356 19.0483 45.3356C18.2232 45.3356 17.8696 45.6892 17.9521 46.5143C17.9521 47.0919 17.9521 47.693 17.9521 48.2588C18.011 49.1665 17.8225 49.6969 16.7027 49.6851C15.5829 49.6733 15.5239 49.0132 15.5239 48.1763C15.5239 45.4063 15.5239 42.6481 15.5239 39.9252C15.5239 37.8742 16.3844 37.0255 18.459 37.002C20.8164 37.002 23.1385 37.002 25.4253 37.002C27.2877 37.002 28.1599 37.721 28.2306 39.5716C28.3367 42.6245 28.3249 45.6774 28.2306 48.7303C28.2896 50.298 26.9694 49.2725 25.9321 49.8501ZM21.9244 43.0135C22.891 43.0135 23.8576 43.0135 24.8241 43.0135C25.7907 43.0135 26.0028 42.6717 25.9321 41.8348C25.9027 41.3519 25.9027 40.8677 25.9321 40.3849C26.0146 39.4184 25.5785 39.1001 24.6473 39.1237C23.056 39.1237 21.4529 39.1237 19.8499 39.1237C17.9521 39.1237 17.9521 39.1237 17.9403 41.045C17.9285 42.9663 17.9403 42.9428 19.8852 42.9428L21.9244 43.0135Z" fill="black"/>
<path d="M0.235746 37.002H11.4573C11.858 39.1355 11.8109 39.1944 9.87776 39.1826C7.94465 39.1708 5.89365 39.1826 3.91339 39.1826C2.85253 39.1826 2.34567 39.3948 2.33389 40.6089C2.3221 41.823 2.85253 42.1766 3.9959 42.1294C5.87008 42.0587 7.75605 42.1294 9.73632 42.1294V44.4162C7.86213 44.4162 5.9408 44.4987 4.03126 44.4162C2.67572 44.2747 2.26316 44.7934 2.35746 46.0664C2.35746 47.0683 2.81717 47.2451 3.68943 47.2451C5.88187 47.2451 8.06252 47.2451 10.2432 47.2451C11.1272 47.2451 11.7284 47.2451 11.7048 48.4239C11.6812 49.6026 11.1626 49.6026 10.3257 49.6026C7.31992 49.6026 4.31415 49.6026 1.30839 49.6026C0.589365 49.6144 0 49.5083 0 48.6596C0 44.8759 0 41.0922 0 37.3084C0 37.2259 0.153235 37.1434 0.235746 37.002Z" fill="black"/>
<path d="M139.09 36.9187C139.503 39.1347 139.467 39.1818 137.511 39.1818C135.153 39.1818 132.796 39.1818 130.438 39.1818C129.401 39.1818 128.941 39.4883 128.988 40.5963C129.051 42.3408 129.051 44.0854 128.988 45.8299C128.988 46.8907 129.342 47.2915 130.415 47.2679C132.984 47.2679 135.554 47.2679 138.123 47.2679C138.913 47.2679 139.385 47.4094 139.385 48.3759C139.385 49.3425 139.09 49.6608 138.123 49.6372C135.224 49.6372 132.312 49.6372 129.401 49.6372C129.024 49.6765 128.643 49.6296 128.286 49.4999C127.93 49.3702 127.608 49.1612 127.345 48.8886C127.081 48.616 126.883 48.287 126.766 47.9266C126.648 47.5662 126.614 47.1837 126.666 46.8082C126.666 44.4508 126.666 42.0933 126.666 39.7358C126.607 39.3705 126.634 38.9964 126.747 38.6437C126.859 38.291 127.052 37.9697 127.312 37.7057C127.571 37.4417 127.889 37.2425 128.24 37.1242C128.59 37.0059 128.964 36.9719 129.33 37.0248C132.513 36.8951 135.79 36.9187 139.09 36.9187Z" fill="black"/>
<path d="M100.534 37.0488C100.805 39.1705 100.805 39.1823 98.9191 39.1823C96.8327 39.1823 94.7464 39.1823 92.6718 39.1823C91.4931 39.1823 91.2809 39.6656 91.2927 40.6793C91.3044 41.693 91.552 42.2117 92.6954 42.1645C94.1923 42.0938 95.7011 42.1645 97.1981 42.1645C98.035 42.1645 98.8601 42.0231 98.8483 43.3433C98.8365 44.6634 98.0232 44.4159 97.2688 44.4159C95.7129 44.4159 94.157 44.4159 92.5539 44.4159C91.5284 44.4159 91.163 44.7931 91.2455 45.7832C91.2455 46.4669 91.2455 47.1506 91.2455 47.8224C91.2455 49.7438 91.1512 49.8263 88.9941 49.4727V37.0488H100.534Z" fill="black"/>
<path d="M60.9869 36.9305V39.1937C59.7375 39.1937 58.5352 39.1937 57.3447 39.1937C56.1541 39.1937 55.9773 39.5473 55.9891 40.5493C55.9891 43.1189 55.9891 45.6885 55.9891 48.2582C55.9891 49.2247 55.718 49.6491 54.6689 49.6491C53.6199 49.6491 53.4902 49.1658 53.4902 48.3053C53.4902 45.8418 53.4902 43.3664 53.4902 40.8911C53.4902 40.3724 53.4902 39.8538 53.4195 39.1937C51.9461 39.1937 50.6023 39.1937 49.2586 39.1937C48.4335 39.1937 48.1623 38.7694 48.3392 38.1211C48.457 37.6732 48.8696 36.9423 49.1643 36.9423C53.0423 36.907 56.9439 36.9305 60.9869 36.9305Z" fill="black"/>
<path d="M122.057 49.8138C121.515 49.2833 120.525 48.7647 120.501 48.2107C120.36 44.5095 120.431 40.7965 120.431 37.1188C122.6 36.7299 122.659 36.777 122.67 38.7337C122.67 41.822 122.67 44.922 122.67 48.0103V49.4248L122.057 49.8138Z" fill="black"/>
</svg>
