<svg id="Layer_1" data-name="Layer 1" xmlns="http://www.w3.org/2000/svg" viewBox="0 0 612 404.82"><defs><style>.cls-1{fill:#1f1f1f;}.cls-2{fill:#201f1f;}.cls-3{fill:#727272;}.cls-4{fill:#626262;}.cls-5{fill:#d9d8d8;}.cls-6{fill:#fff;}.cls-7{fill:#e2e1e1;}.cls-8{fill:#e2dedf;}.cls-9{fill:#fffefe;}.cls-10{fill:#3a3a3a;}.cls-11{fill:#434343;}.cls-12{fill:#b6b5b5;}.cls-13{fill:#fefefe;}.cls-14{fill:#212120;}.cls-15{fill:#212121;}.cls-16{fill:#222;}.cls-17{fill:#202020;}.cls-18{fill:#ded9da;}.cls-19{fill:#f7f6f6;}.cls-20{fill:none;stroke:#ed2024;stroke-miterlimit:10;stroke-width:0.75px;}.cls-21{fill:#ed2024;}</style></defs><path class="cls-1" d="M230.14,207.83c-.09.42-.43.25-.66.25-3.35,0-6.7,0-10,0-.44,0-.67.09-.8.55a1.69,1.69,0,0,1-1.66,1.22,19,19,0,0,1-9.22-1.69,2.6,2.6,0,0,1-1.34-3.25,16.71,16.71,0,0,0,.47-5.53q0-19.94,0-39.88a3.12,3.12,0,0,0-.21-1.24,4.25,4.25,0,0,1-.34-2.17A2.36,2.36,0,0,1,208,153.9a41.19,41.19,0,0,1,4.53-1.45,18.31,18.31,0,0,1,5-.09c.67,0,1,.59,1.21,1.21.11.4.32.5.71.49h10.12c.23,0,.57-.18.65.25.1,1,0,2.07,0,3.1,0,1.23,0,2.47,0,3.7,0,.44,0,.89,0,1.33,0-.4,0-.81,0-1.22s-.14-1,.18-1.51a5.91,5.91,0,0,1,1-2.76,3.26,3.26,0,0,1,2.94-1.56c5.35,0,10.7,0,16.06,0a3.26,3.26,0,0,1,1.3.24c3.59,1.4,7.2,2.7,10.88,3.86.08-.15-.05-.15-.1-.18a92.32,92.32,0,0,1-10.57-7.19A34.39,34.39,0,0,0,248,149.7a11.36,11.36,0,0,0-6-1.18c-2.69,0-5.39-.05-8.09-.1a2.67,2.67,0,0,1-2.85-2.93c0-2.67,0-5.35,0-8a1.33,1.33,0,0,0-.44-1.05,13.62,13.62,0,0,1-1.06-1.22,4.57,4.57,0,0,1-1.1-3.22c.09-1.53,0-3.06,0-4.59a4.15,4.15,0,0,1,4.54-4.33c4.75-.24,9.51-.45,14.26-.69.48,0,.69.06.64.6s.05,1.31,0,2a8.17,8.17,0,0,0,1.25,5.12,12.35,12.35,0,0,0,4.82,5.3,6.15,6.15,0,0,0,3,.72c.95,0,1.9-.06,2.84,0,2.68.21,4.78-1,6.63-2.73,2.65-2.48,3.71-5.69,4-9.22,0-.51,0-1,.06-1.55,0-1.3.58-1.86,1.9-2,.13,0,.27,0,.4,0q29.53,0,59.05,0c.68,0,.84.18.77.81-.11.94-.09,1.89-.18,2.83-.43,4.46,1.49,7.83,5.06,10.24a11.61,11.61,0,0,0,17.75-7.19,5.39,5.39,0,0,0,.11-1.07c0-1.66,0-3.33,0-5,0-.43.06-.63.58-.63,3.64,0,7.29,0,10.93,0a.79.79,0,0,1,.74.35,11.94,11.94,0,0,1,2.64,7c0,1.1,0,2.2,0,3.3a9.78,9.78,0,0,1-2.68,7,11.18,11.18,0,0,1-1.4,1.44c-1.28,1.08-2.9,1.25-4.41,1.69a160.19,160.19,0,0,1-18.22,4.31,30.46,30.46,0,0,1-6.09.61,1.25,1.25,0,0,0-.86.29,81.76,81.76,0,0,1-21,11.74.42.42,0,0,1-.39.18c-.13.12-.32.09-.46.19.14-.1.34-.06.47-.18a5,5,0,0,0,.54-.07,59.67,59.67,0,0,0,6-1.54c3.05-.91,6.09-1.87,9.12-2.83a8.62,8.62,0,0,1,3.12,0c3.08.11,6.15.3,9.22.5,5,.32,10,.68,15,1.44a13.48,13.48,0,0,1,4,1c2.9,1.44,4.26,3.92,4.68,7,.06.44.1.89.15,1.33.52,0,.68-.23.68-.74,0-3.6,0-7.2,0-10.8,0-.64.19-.88.85-.88a8.76,8.76,0,0,1,4.41,1.15v-1.72c0-.25,0-.5.36-.51,3.83-.17,7.53.24,10.79,2.52a1.61,1.61,0,0,1,.79,1.49q0,25.17,0,50.35a1.53,1.53,0,0,1-.7,1.4,14.36,14.36,0,0,1-6.61,2.44,28.67,28.67,0,0,1-4,.15c-.43,0-.61-.15-.58-.59s0-1,0-1.53c-.23-.12-.37.05-.52.12a8.33,8.33,0,0,1-4,.89c-.57,0-.78-.21-.78-.8,0-3.58,0-7.15,0-10.73,0-.14,0-.27,0-.41s0-.4-.22-.43-.18.25-.21.39a11.72,11.72,0,0,1-7.05,8.43,10.54,10.54,0,0,1-3,.57c-4,.54-7.93,1-11.91,1.34-3.54.3-7.08.46-10.63.62a17.85,17.85,0,0,1-6.52-1.19c-3.19-1.06-6.46-1.9-9.72-2.72a1.08,1.08,0,0,0-.67,0c2,.83,4,1.71,5.84,2.66a76.55,76.55,0,0,1,13,8.23,1,1,0,0,0,.64.3A57.33,57.33,0,0,1,348.69,217c5.28,1.11,10.48,2.54,15.66,4a6,6,0,0,1,2.78,1.92,10.43,10.43,0,0,1,3,5.73c.18,1.48,0,3,.09,4.51a11.13,11.13,0,0,1-.94,4.7,12.67,12.67,0,0,1-1.65,2.85.91.91,0,0,1-.78.4q-5.5,0-11,0c-.48,0-.54-.18-.54-.58,0-1.37,0-2.75,0-4.12a10,10,0,0,0-3.06-7.44,11,11,0,0,0-11.45-3.23,11.28,11.28,0,0,0-8.31,8.59,15.29,15.29,0,0,0,0,5c.1,1.81.17,1.81-1.64,1.81H272.84a3.06,3.06,0,0,1-1-.08c-1.19-.37-1.36-.56-1.36-1.79a16.42,16.42,0,0,0-1.76-7.79,11.41,11.41,0,0,0-5.67-5.25,5.38,5.38,0,0,0-2.41-.5c-1.12,0-2.25.05-3.37,0a7.08,7.08,0,0,0-5.65,2.52,17.41,17.41,0,0,0-3.6,6,2.13,2.13,0,0,0-.11.79c0,1.19,0,2.39,0,3.58,0,.6-.13.8-.76.76-2.89-.17-5.79-.29-8.68-.42l-6.53-.3a4.09,4.09,0,0,1-3.31-3.13,5.07,5.07,0,0,1-.17-1.4c0-1.69,0-3.38,0-5.06a3,3,0,0,1,.39-1.41,9.2,9.2,0,0,1,1.67-2.2,1.7,1.7,0,0,0,.54-1.35c0-2.57,0-5.13,0-7.7a2.72,2.72,0,0,1,3-3.08c2.09-.07,4.18-.06,6.27-.09l4.45-.05a4.76,4.76,0,0,0,1.74-.49,27.39,27.39,0,0,0,6.44-3.86c2.78-2.16,5.64-4.21,8.7-6.16a2.56,2.56,0,0,0-1.34.31c-3.5,1.15-7,2.3-10.49,3.49a5.55,5.55,0,0,1-1.85.21c-4.45,0-8.91,0-13.36,0a3.23,3.23,0,0,1-2.92-1.6,9.39,9.39,0,0,1-1.31-4.06,2.39,2.39,0,0,1-.17-1.24c0-.35,0-.71,0-1.06,0,.39,0,.79,0,1.18C230.16,202.59,230.21,205.21,230.14,207.83Z"/><path class="cls-2" d="M258.87,246.68a9.85,9.85,0,1,1,9.83-9.84A9.79,9.79,0,0,1,258.87,246.68Z"/><path class="cls-2" d="M353.69,125A9.85,9.85,0,0,1,334,125a9.85,9.85,0,1,1,19.69,0Z"/><path class="cls-2" d="M258.86,134.79A9.85,9.85,0,1,1,268.7,125,9.79,9.79,0,0,1,258.86,134.79Z"/><path class="cls-2" d="M353.69,236.89a9.85,9.85,0,1,1-9.78-9.9A9.88,9.88,0,0,1,353.69,236.89Z"/><path class="cls-3" d="M230.23,199.85l.12,1.23c-.2.21-.12.47-.12.71,0,1.8,0,3.59,0,5.39,0,.22.07.45-.08.65-.09-2.66,0-5.32,0-8C230.16,199.78,230.19,199.78,230.23,199.85Z"/><path class="cls-4" d="M230.36,159.71l-.13,1.5c0,.08-.07.08-.11,0-.05-2.3-.07-4.6,0-6.9.18,1.52,0,3.05.08,4.57C230.22,159.15,230.11,159.46,230.36,159.71Z"/><path class="cls-5" d="M315.73,158.54c-.16.18-.37.13-.57.12,0,0-.05,0,0-.07s0,0,0,0l.41-.13Z"/><path class="cls-6" d="M313,179c.05,6.43-.22,12.85-.72,19.26-.08,1.1-.21,2.19-.29,3.29,0,.46-.25.54-.65.43a77.14,77.14,0,0,0-8.11-1.79c-2.27-.38-4.55-.56-6.83-.74-5.07-.39-10.14-.63-15.22-.54-3.46.06-6.91.35-10.36.45-2.75.08-5.1,1.25-7.6,2-.81.25-.8.27-1-.57a87.82,87.82,0,0,1-2.3-22.79,77.18,77.18,0,0,1,2.3-17.11c.21-.83.2-.82,1-.58,1.82.54,3.63,1.12,5.47,1.59a21.52,21.52,0,0,0,4,.36q8.65.61,17.32.42c3.41-.09,6.82-.28,10.22-.64a68.61,68.61,0,0,0,11.3-2c.32-.09.43,0,.47.33a132.33,132.33,0,0,1,.95,13.78C313,175.77,313,177.38,313,179Z"/><path class="cls-6" d="M333.19,207.51c2.23-2.62,3.1-5.78,3.95-8.93a57.84,57.84,0,0,0,2.13-15.15,127.67,127.67,0,0,0-.52-13.12,37,37,0,0,0-2.85-10.13c-.74-1.84-1.59-3.64-2.49-5.37,1.12,0,2.23-.05,3.33,0q4,.19,8.07.47c4.37.31,8.74.64,13.07,1.31a14.21,14.21,0,0,1,4,1,7.78,7.78,0,0,1,4.33,5.89,13.26,13.26,0,0,1,.2,2.75,39.82,39.82,0,0,0,.54,4.73c.31,2.81.58,5.62.67,8.45a100.35,100.35,0,0,1-.35,11.11,44,44,0,0,1-.66,6.89,10.78,10.78,0,0,1-6.91,7.78,16.87,16.87,0,0,1-4,.62q-5.26.71-10.58,1.16c-3.87.33-7.75.61-11.64.6Z"/><path class="cls-7" d="M338.69,181.54a57.54,57.54,0,0,1-3.55,21.38,12,12,0,0,1-2.17,3.92,1.31,1.31,0,0,1-1.56.46c-5.63-1.74-11.28-3.41-17-4.7-.5-.11-1-.24-1.51-.31-.3,0-.36-.14-.34-.43.18-2,.34-4,.5-6,.27-3.43.42-6.86.53-10.29s.16-6.66.09-10a130.59,130.59,0,0,0-1-15.05c-.08-.59.09-.72.66-.82a136.19,136.19,0,0,0,17.6-4.88,6.35,6.35,0,0,1,.78-.19,1.21,1.21,0,0,1,1.44.82,55.78,55.78,0,0,1,4.66,12.43,44.53,44.53,0,0,1,.78,7.28C338.65,177.27,338.64,179.41,338.69,181.54Z"/><path class="cls-6" d="M231.48,225.37a1.73,1.73,0,0,0,.11-.87c0-.74-.31-1.75.13-2.13s1.41-.11,2.15-.12h1.69a1.32,1.32,0,0,0,1.45-1.46c0-1.33,0-2.66,0-4a1.32,1.32,0,0,0-1.42-1.43c-1.27,0-2.55,0-3.91,0A2.27,2.27,0,0,1,233.6,214a24.61,24.61,0,0,1,3.84-.11c2.41-.06,4.81-.06,7.22-.09a8.46,8.46,0,0,0,3.35-1.11,36.53,36.53,0,0,0,6.67-4.41,79.32,79.32,0,0,1,9.49-6.36,16.61,16.61,0,0,1,7.51-2c4.69-.18,9.38-.43,14.08-.38,3.4,0,6.78.31,10.16.52A86.38,86.38,0,0,1,309,202c.37.08.74.18,1.1.28s1.14.11.66,1c-.26.49.27,1.23,1,1.57,3,1.43,5.85,3.11,8.69,4.83,3.38,2,6.65,4.24,10,6.3,1.18.73,2.43,1.39,3.67,2a7.65,7.65,0,0,0,2.58.32c5.12.53,10.17,1.45,15.23,2.38,2.66.49,5.32,1,8,1.54a.77.77,0,0,1,.72.77,12.7,12.7,0,0,0,1.44,4H361c-3.21,0-6.43-.16-9.64.14a1,1,0,0,1-.67-.25A12.22,12.22,0,0,0,332,234.27a7.93,7.93,0,0,0-.17,2.61c0,.39-.07.5-.46.5-1.35,0-2.7,0-4.16,0a6.15,6.15,0,0,0,.57-3.56q0-7.42,0-14.85a5,5,0,0,0-.34-1.62c-.8-2.43-2.62-3.94-4.57-5.39a58.25,58.25,0,0,0-18.21-8.87,54.3,54.3,0,0,0-6.52-1.58,31.91,31.91,0,0,0-4.37-.23c-4-.16-8-.14-12-.05q-6.37.14-12.71.79a1.18,1.18,0,0,0-1.12.92q-1.93,5.53-4,11a10.51,10.51,0,0,0-1.24,6.63c.09.77.51,1.51.65,2.31,0,.23.28.27.46.35a13.77,13.77,0,0,1,8,10.62,10.32,10.32,0,0,1,.1,3.09c-.12.94-.11,1,.81,1H330.8c1.06,0,1.06,0,1.1,1,0,.14,0,.27,0,.41.09,1.23.09,1.23-1.17,1.23H272.36c-1-.1-1.33-.44-1.33-1.42a16.15,16.15,0,0,0-2.18-8.62,11.76,11.76,0,0,0-6.41-5.17,3.58,3.58,0,0,0-1.26-.2c-1.55,0-3.11-.06-4.66,0-8.07.37-16.14.06-24.21.16Z"/><path class="cls-6" d="M311,159.31a58.67,58.67,0,0,1-6.19,1.51,93,93,0,0,1-11.77,1.1c-4.39.27-8.77.22-13.15.1-3.42-.09-6.83-.28-10.23-.59a17.9,17.9,0,0,1-7.09-2.73,80.45,80.45,0,0,1-9.54-6.43,25.46,25.46,0,0,0-7.16-4.05,12.05,12.05,0,0,0-3.74-.22c-2.69-.09-5.39-.09-8.09-.14a2.71,2.71,0,0,1-2.13-1c-.08-.1-.2-.21-.14-.35s.24-.09.37-.09h3.24c1.18,0,1.64-.47,1.64-1.63s-.06-2.43,0-3.64a1.51,1.51,0,0,0-1.66-1.66c-1.08,0-2.17,0-3.24,0-.47,0-.56-.14-.55-.56,0-.83,0-1.66,0-2.54.13-.07.35,0,.56,0,7.47,0,14.94-.06,22.41,0,1.79,0,3.59.1,5.38.21a8.53,8.53,0,0,0,5.46-1.74,13.12,13.12,0,0,0,5.35-8.85,18.21,18.21,0,0,0,.27-3.76.82.82,0,0,1,.61-.9,3,3,0,0,1,1.12-.22h58.58c.56,0,.81.12.65.71a3,3,0,0,0-.06.6c-.09,1.34-.09,1.34-1.47,1.34H272.67c-.84,0-.88.06-.83.8a13.61,13.61,0,0,1-6.52,13.08,17.35,17.35,0,0,1-1.53.83c-.2.1-.44.16-.49.42-.13.73-.54,1.42-.6,2.11a10.24,10.24,0,0,0,.6,5.43c.92,1.91,1.52,3.92,2.27,5.88.82,2.17,1.58,4.37,2.34,6.57a1.07,1.07,0,0,0,1,.83c5,.54,10,.73,15,.84,4.5.1,9,0,13.48-.24a28,28,0,0,0,6-1.32,58.73,58.73,0,0,0,19.09-9,30.94,30.94,0,0,0,3.08-2.51,10,10,0,0,0,1.7-2.95,3.9,3.9,0,0,0,.41-1.87q0-7.69,0-15.39a5.23,5.23,0,0,0-.6-2.94c1.5,0,2.9,0,4.31,0,.47,0,.33.32.32.56a10.51,10.51,0,0,0,2.11,6.87,12.17,12.17,0,0,0,16.26,3.43,3.08,3.08,0,0,1,1.93-.49,94.06,94.06,0,0,0,9.5,0h.55a17.41,17.41,0,0,0-1.25,3.14c0,.06-.07.13-.06.19,0,1.12-.61,1.43-1.62,1.62-6.38,1.21-12.77,2.45-19.21,3.37-1.79.25-3.6.49-5.42.57a.84.84,0,0,0-.45.11c-1.27,1.05-2.88,1.53-4.24,2.41-5.31,3.44-10.62,6.87-16.22,9.83-.65.35-1.32.66-2,1a2,2,0,0,0-1.09,1.13A1.07,1.07,0,0,0,311,159.31Z"/><path class="cls-6" d="M230.24,182.16c-.06-5.86.11-11.27.35-16.68a44,44,0,0,1,.33-5.85,5.22,5.22,0,0,1,1.37-2.93,2.44,2.44,0,0,1,1.81-.74q6.75,0,13.5,0c.57,0,.78,0,.65.74-.84,4.41-1.42,8.86-1.83,13.33a134.59,134.59,0,0,0-.62,15.42,88.65,88.65,0,0,0,2.4,20c.18.69,0,.74-.62.74-4.27,0-8.54,0-12.82,0a2.91,2.91,0,0,1-2.81-1.69,10.19,10.19,0,0,1-1.15-4.38C230.45,194,230.09,187.86,230.24,182.16Z"/><path class="cls-6" d="M292.14,160c.6-3,1.07-6.07,1.48-9.09.67-4.86,1.68-9.69,1.5-14.64-.15-3.8-.27-7.59-.56-11.37,0-.42.07-.53.49-.53q15.39,0,30.77,0a1,1,0,0,1,1,.6,3.32,3.32,0,0,1,.39,1.54q0,8.27,0,16.53a3.2,3.2,0,0,1-.23,1c-.79,2.53-2.7,4.09-4.74,5.57a60.93,60.93,0,0,1-21,9.5A38.16,38.16,0,0,1,292.14,160Z"/><path class="cls-6" d="M310.45,237.37c-5.06,0-10.13,0-15.19,0-.57,0-.71-.07-.67-.71.21-3.25.42-6.5.47-9.76,0-1.62,0-3.23,0-4.85a52.44,52.44,0,0,0-.76-6.49c-.48-3.46-1-6.92-1.56-10.38-.15-.93-.31-1.86-.52-2.78-.12-.52,0-.62.54-.64a40.21,40.21,0,0,1,13.82,2.54,56.83,56.83,0,0,1,17.15,9.06,10.76,10.76,0,0,1,3.32,4.69,1.94,1.94,0,0,1,.11.79q0,8.18,0,16.34a3.8,3.8,0,0,1-.17,1.12c-.26.87-.53,1.06-1.44,1.06Z"/><path class="cls-6" d="M220.91,156.33c0,1.91,0,3.82,0,5.73a1.07,1.07,0,0,1-.38.88,5,5,0,0,0-1.73,3.9q.1,14.29,0,28.6a4.57,4.57,0,0,0,1.62,3.67,1.29,1.29,0,0,1,.48,1.1q-.07,3.43-.1,6.88c0,.34-.08.49-.44.45s-.45,0-.68,0c-.8-.05-1.55-.11-1.67,1-.05.47-.53.66-1,.71a18,18,0,0,1-9.08-1.67,2,2,0,0,1-1-2.49c.69-1.89.48-3.81.49-5.72q0-19.09,0-38.19a12.07,12.07,0,0,0-.41-3.91c-.51-1.54.07-2.47,1.58-3a27.49,27.49,0,0,1,4.22-1.32,18.84,18.84,0,0,1,4.44-.05c.63,0,.84.64.94,1.17s.26.56.67.54,1,0,1.56,0c.29,0,.39.08.38.38s0,.89,0,1.34Z"/><path class="cls-7" d="M246.37,183a144,144,0,0,1,1.26-18.67c.35-2.65.75-5.28,1.23-7.91.07-.37.2-.46.56-.48a6.09,6.09,0,0,1,2.56.43q4.62,1.83,9.36,3.35c.41.14.55.25.42.74a78.18,78.18,0,0,0-2.38,17.23,88.29,88.29,0,0,0,2.4,23.64c.1.4,0,.54-.37.67-4,1.29-8,2.59-12,3.93-.54.18-.55-.1-.63-.42A81.74,81.74,0,0,1,247,195,108.79,108.79,0,0,1,246.37,183Z"/><path class="cls-6" d="M283.23,124.39c3.38,0,6.75,0,10.13,0,.43,0,.61.05.64.56a146.88,146.88,0,0,1,.47,15.56,59.1,59.1,0,0,1-.82,6.34c-.54,3.71-1.13,7.41-1.72,11.11a4.48,4.48,0,0,1-.43,1.88c-.39.53-1.2.17-1.82.2-3.55.14-7.1,0-10.65-.12q-3.63-.12-7.26-.44c-.94-.08-1.87-.2-2.81-.26-.37,0-.42-.27-.51-.52q-2-5.46-3.92-10.93a13,13,0,0,1-1.11-2.79,15.2,15.2,0,0,1-.19-3.56c.08-.73.48-1.43.62-2.18,0-.2.27-.2.42-.28a14.3,14.3,0,0,0,8-10.71,10,10,0,0,0,.16-3.09c-.1-.7.16-.78.77-.77C276.57,124.41,279.9,124.39,283.23,124.39Z"/><path class="cls-6" d="M283.2,237.37c-3.4,0-6.8,0-10.19,0-.49,0-.56-.12-.55-.58.16-6.34-2.56-11-8.19-13.94a.84.84,0,0,1-.5-.48,10.4,10.4,0,0,1-.3-5.82,32,32,0,0,1,1.5-3.71c1.09-3.22,2.31-6.4,3.43-9.61a.84.84,0,0,1,.84-.67c2.3-.19,4.61-.41,6.92-.55,4.89-.3,9.79-.33,14.69-.29.53,0,.73.15.83.67.79,4.33,1.33,8.7,2,13a58.8,58.8,0,0,1,.76,12.42c-.13,3-.33,5.92-.46,8.88,0,.52-.18.66-.7.65C290,237.36,286.57,237.37,283.2,237.37Z"/><path class="cls-6" d="M384.28,181.06q0,12.51,0,25a1.29,1.29,0,0,1-.63,1.2,14,14,0,0,1-6.4,2.25,28.93,28.93,0,0,1-3.09.16c-.55,0-.71-.11-.71-.69,0-4.14,0-8.28.05-12.41a2,2,0,0,0-1.27-2,2.2,2.2,0,0,0-2.55.35c-.46.39-.93.78-1.42,1.13-.15.1-.26.33-.52.18s-.21-.36-.22-.59a48.77,48.77,0,0,1,.32-5c.17-2.31.31-4.61.36-6.93a77.09,77.09,0,0,0-.14-7.75c-.22-2.66-.44-5.32-.9-8a10,10,0,0,1-.14-1.21c0-.32-.12-.67.3-.86a1,1,0,0,1,1.14,0c.31.25.56.58.85.86a2.52,2.52,0,0,0,3.89,0,1.08,1.08,0,0,0,.27-.85c0-4.3,0-8.59,0-12.89,0-.55.11-.71.68-.71a17.69,17.69,0,0,1,8.06,1.54c2.08,1,2.07,1,2.07,3.34Z"/><path class="cls-6" d="M229.59,181.1q0,12.89,0,25.77c0,.5-.07.74-.64.68-.32,0-.43-.1-.42-.43,0-1,0-2,0-3a2.42,2.42,0,0,0-1.91-2.57,16.41,16.41,0,0,1-5.48-2.62,4.25,4.25,0,0,1-1.76-3.57c.06-9.42.08-18.85,0-28.27a4.9,4.9,0,0,1,2.46-4.44,15.63,15.63,0,0,1,4.38-2c1.51-.44,2.47-1.17,2.34-3.09-.06-.83,0-1.66,0-2.49,0-.46.16-.5.54-.51s.52.12.52.53c0,6.83,0,13.67,0,20.51v5.46Z"/><path class="cls-6" d="M253.47,226c-3.1,1.95-4.76,4.91-6,8.15a5.18,5.18,0,0,0-.11,1.8c0,.79,0,1.58,0,2.36,0,.44-.14.53-.54.5l-9.74-.49c-1.44-.07-2.88-.22-4.31-.16a3.71,3.71,0,0,1-3.71-3.73c-.07-1.82-.09-3.64,0-5.46a4.86,4.86,0,0,1,1.81-3c.09-.09.3-.08.45-.08h22.05S253.39,226,253.47,226Z"/><path class="cls-6" d="M253.61,135.85h-.76c-7.13,0-14.26,0-21.39,0a1,1,0,0,1-1-.48c-.17-.27-.4-.49-.59-.74A3.88,3.88,0,0,1,229,132c.08-1.48,0-3,0-4.45a4.21,4.21,0,0,1,.63-2.24,3.25,3.25,0,0,1,2.86-1.67c4.67-.17,9.33-.42,14-.67.68,0,.93.12.83.81-.06.4,0,.81,0,1.21a8.55,8.55,0,0,0,1.23,5.14A14.16,14.16,0,0,0,253.61,135.85Z"/><path class="cls-6" d="M351.72,134.19a16.93,16.93,0,0,0,2.07-2.31,10.64,10.64,0,0,0,2.13-6.58c-.05-1.19,0-2.38,0-3.57,0-.4.07-.55.51-.55,3.4,0,6.79,0,10.19,0a.78.78,0,0,1,.72.38,11.36,11.36,0,0,1,2.32,6.81c0,1.3,0,2.6,0,3.91a4.64,4.64,0,0,1,0,.53c-.13,1.16-.13,1.18-1.28,1.14-3.19-.12-6.36.36-9.55.34C356.48,134.29,354.15,134.32,351.72,134.19Z"/><path class="cls-6" d="M351.73,227.68a9.09,9.09,0,0,1,2.23-.16c3,0,6.07-.12,9.1.14a39.39,39.39,0,0,0,5.85.13c.32,0,.51,0,.55.4a6.91,6.91,0,0,1,.16.79,52.08,52.08,0,0,1-.06,5.86,11.51,11.51,0,0,1-2.24,5.4.86.86,0,0,1-.79.38q-5,0-10,0c-.49,0-.59-.14-.58-.6,0-1.19,0-2.38,0-3.57A11.15,11.15,0,0,0,352.1,228Z"/><path class="cls-8" d="M335.9,215.38c-1.83,0-3.46,0-5.1,0A1.33,1.33,0,0,1,330,215c-4.92-3.22-9.88-6.38-15-9.2-1-.53-2-1-2.93-1.49a1.12,1.12,0,0,1-.72-.91c0-.48.53-.78,1.07-.6A83.37,83.37,0,0,1,327.8,210,80.65,80.65,0,0,1,335.9,215.38Z"/><path class="cls-7" d="M335.78,146.53c-.86.62-1.71,1.26-2.59,1.86a83,83,0,0,1-20.82,10.51,2.46,2.46,0,0,1-.51.15.77.77,0,0,1-.7-.45c-.15-.23,0-.45.17-.6a3,3,0,0,1,.7-.52,139.45,139.45,0,0,0,16.2-9.57,7.39,7.39,0,0,1,5.16-1.53,18.12,18.12,0,0,0,2.33,0Z"/><path class="cls-7" d="M368.23,202.63c0-1.76,0-3.51,0-5.26a.91.91,0,0,1,.44-.89A9.43,9.43,0,0,0,370,195.4a1.92,1.92,0,0,1,2.79.35.79.79,0,0,1,.1.51c0,3.53,0,7.05,0,10.58a.7.7,0,0,1-.41.69,7.68,7.68,0,0,1-3.78,1c-.42,0-.52-.14-.52-.54C368.25,206.22,368.23,204.42,368.23,202.63Z"/><path class="cls-7" d="M368.23,159.33c0-1.75,0-3.5,0-5.25,0-.41.1-.55.52-.54a8,8,0,0,1,3.78,1.06.69.69,0,0,1,.4.69c0,3.53,0,7.05,0,10.58a1.55,1.55,0,0,1-1.91,1.27,2.25,2.25,0,0,1-1.27-.73,3.31,3.31,0,0,0-1.31-1.12c-.31-.12-.19-.37-.19-.57C368.23,162.93,368.24,161.13,368.23,159.33Z"/><path class="cls-9" d="M332.06,216a54.48,54.48,0,0,1,13.05.86c6.55,1.28,13,3,19.4,4.88.18.05.41.05.57.28a4,4,0,0,1-2.19.15c-2.17-.22-4.27-.8-6.4-1.21-5.73-1.08-11.46-2.18-17.25-2.93-1.22-.16-2.44-.34-3.68-.4a3.31,3.31,0,0,1-2-.71A13.85,13.85,0,0,0,332.06,216Z"/><path class="cls-6" d="M332.14,145.77a21.8,21.8,0,0,1,2.18-1.4,5.36,5.36,0,0,1,2-.25c3.93-.41,7.83-1.06,11.72-1.73,4.76-.82,9.5-1.8,14.25-2.71a6.55,6.55,0,0,1,2.75,0c-.13.27-.34.27-.52.32a195,195,0,0,1-20.51,5.09,57.61,57.61,0,0,1-11.88.69S332.15,145.79,332.14,145.77Z"/><path class="cls-7" d="M221.4,199.9a21.61,21.61,0,0,0,5.14,2.26,1.86,1.86,0,0,1,1.43,2c0,1,0,1.89,0,2.83,0,.39-.05.55-.5.55-1.86,0-3.73,0-5.6,0-.39,0-.48-.13-.48-.5C221.4,204.71,221.4,202.38,221.4,199.9Z"/><path class="cls-7" d="M221.4,162.25c0-2.48,0-4.79,0-7.11,0-.46.15-.54.57-.54,1.82,0,3.64,0,5.46,0,.43,0,.57.11.56.55,0,1,0,1.94,0,2.9a1.76,1.76,0,0,1-1.33,1.87A22.34,22.34,0,0,0,221.4,162.25Z"/><path class="cls-7" d="M236.45,218.84v1.95a.8.8,0,0,1-.87.89c-1.21,0-2.43,0-3.64,0-.26,0-.35-.08-.35-.34,0-1.69,0-3.38,0-5.06,0-.31.12-.37.4-.37,1.17,0,2.34,0,3.5,0,.68,0,.95.33,1,1S236.45,218.21,236.45,218.84Z"/><path class="cls-7" d="M231.59,143c0-.83,0-1.67,0-2.5,0-.28.07-.39.37-.39,1.19,0,2.38,0,3.57,0a.86.86,0,0,1,.93,1c0,1.26,0,2.52,0,3.78,0,.69-.28,1-1,1-1.15,0-2.3,0-3.44,0-.37,0-.45-.11-.44-.46C231.61,144.6,231.59,143.79,231.59,143Z"/><path class="cls-7" d="M366,227H363.2a.56.56,0,0,1-.58-.35,14.6,14.6,0,0,1-1.37-3.63c-.07-.32,0-.4.31-.36a13,13,0,0,0,4.22,0c.19,0,.29.11.4.22a15.55,15.55,0,0,1,2.73,3.8c.19.4.13.49-.33.47-.85,0-1.7,0-2.55,0Z"/><path class="cls-7" d="M369.06,134.77a14.15,14.15,0,0,1-2.93,4.19.58.58,0,0,1-.56.13,12.83,12.83,0,0,0-4,0c-.45.06-.41-.09-.34-.42a14.47,14.47,0,0,1,1.36-3.56.57.57,0,0,1,.58-.37Z"/><path class="cls-10" d="M230.12,161.21h.11v1.37h-.11Z"/><path class="cls-11" d="M230.23,199.85h-.11v-1.2h.11Z"/><path class="cls-12" d="M315.16,158.55a.2.2,0,0,1,0,.11.33.33,0,0,1-.49.06Z"/><path class="cls-9" d="M258.78,246.13a9.28,9.28,0,1,1,9.34-9.25A9.32,9.32,0,0,1,258.78,246.13Z"/><path class="cls-13" d="M343.85,115.7a9.27,9.27,0,1,1-9.27,9.23A9.23,9.23,0,0,1,343.85,115.7Z"/><path class="cls-13" d="M258.87,115.7a9.27,9.27,0,1,1-9.31,9.2A9.27,9.27,0,0,1,258.87,115.7Z"/><path class="cls-13" d="M353.11,236.85a9.27,9.27,0,1,1-9.29-9.28A9.28,9.28,0,0,1,353.11,236.85Z"/><path class="cls-2" d="M258.71,215.52c-1,0-2.11,0-3.17,0a1.85,1.85,0,0,1-1.69-1.21,1.49,1.49,0,0,1,.31-1.8,49.79,49.79,0,0,1,4.29-4.18,31.85,31.85,0,0,1,7.34-5.05c.23-.1.49-.37.73-.11s0,.51,0,.77c-1.2,3.6-2.4,7.2-3.56,10.82a1,1,0,0,1-1.11.77C260.78,215.48,259.75,215.52,258.71,215.52Z"/><path class="cls-14" d="M258.77,146.26c1.08,0,2.16,0,3.23,0a.75.75,0,0,1,.83.59c1.22,3.72,2.46,7.43,3.69,11.14.07.2.2.45,0,.64s-.45,0-.68-.06a31.89,31.89,0,0,1-7.15-4.86c-1.54-1.31-2.95-2.75-4.36-4.2a1.65,1.65,0,0,1-.5-2,2,2,0,0,1,1.9-1.24C256.75,146.29,257.76,146.26,258.77,146.26Z"/><path class="cls-1" d="M323.16,145c.36,0,.83,0,1.3,0,.22,0,.49-.07.61.18s-.1.42-.24.58a26.72,26.72,0,0,1-5,4.39,59.3,59.3,0,0,1-20.26,8.64,16.88,16.88,0,0,1-5,.3c-.88-.06-1-.28-.85-1.09q1.29-5.53,2.57-11.06c.11-.48.28-.75.88-.77,3.09-.09,6.18-.25,9.28-.38s5.93-.16,8.88-.39C317.9,145.19,320.48,145.22,323.16,145Z"/><path class="cls-15" d="M301,141.11c.74,0,1.49,0,2.23,0a1.12,1.12,0,0,1,1.21,1.15,1.09,1.09,0,0,1-1.23,1.12c-1.48,0-3,0-4.45,0a1.15,1.15,0,1,1,0-2.28Z"/><path class="cls-1" d="M295.79,202.67a27.36,27.36,0,0,1,8.49,1.62,57.08,57.08,0,0,1,15.86,7.59,26.62,26.62,0,0,1,4.63,4.11c.16.18.41.37.31.62s-.44.24-.7.23c-2.59-.09-5.17-.11-7.75-.29-5.8-.41-11.62-.55-17.42-.8-.68,0-1.35-.13-2-.1s-.79-.22-.91-.74c-.8-3.53-1.63-7.07-2.45-10.6-.33-1.48-.2-1.63,1.35-1.64Z"/><path class="cls-15" d="M300.91,220.69c-.72,0-1.43,0-2.15,0a1.15,1.15,0,0,1-1.28-1.15c0-.67.49-1.08,1.27-1.08h4.45c.76,0,1.18.37,1.22,1a1.08,1.08,0,0,1-1.15,1.19C302.48,220.71,301.7,220.69,300.91,220.69Z"/><path class="cls-2" d="M271.35,146h15c1.62,0,3.24,0,4.86-.1.54,0,.77.12.71.72-.27,3-.51,6-.76,9.06-.07.91-.17,1.83-.2,2.75,0,.57-.21.77-.81.76-4.45-.08-8.9-.13-13.35-.19-2.25,0-4.49-.08-6.74-.08a.87.87,0,0,1-.94-.65c-1.42-3.75-2.8-7.5-4.1-11.29-.23-.68-.16-.8.55-.8h5.74Z"/><path class="cls-15" d="M269.53,143.39c-.74,0-1.49,0-2.23,0a1.13,1.13,0,0,1-1.21-1.16,1.09,1.09,0,0,1,1.18-1.11c1.52,0,3.05,0,4.58,0a1.12,1.12,0,0,1,1.19,1.11,1.15,1.15,0,0,1-1.22,1.15C271.05,143.4,270.29,143.39,269.53,143.39Z"/><path class="cls-2" d="M287.66,215.75c-5.4,0-10.8,0-16.19,0-2,0-3.91-.06-5.87-.09-.72,0-.77-.09-.53-.79,1.28-3.75,2.65-7.46,4.05-11.17a1,1,0,0,1,1.13-.76c5.35,0,10.7-.11,16.05-.18,1.35,0,2.7,0,4-.08.43,0,.61.12.64.55q.47,6,1,12c.05.62-.13.78-.73.75-1.19,0-2.38,0-3.57,0Z"/><path class="cls-15" d="M269.54,218.45h2.35a1.11,1.11,0,1,1,.08,2.22c-1.59,0-3.19,0-4.78,0a1,1,0,0,1-1.09-1.17,1.06,1.06,0,0,1,1.15-1.05Z"/><path class="cls-16" d="M379.36,181.08v-19.3c0-1,.53-1.65,1.43-1.67s1.47.57,1.52,1.59c0,.23,0,.45,0,.68V200a7.32,7.32,0,0,1,0,.81,1.46,1.46,0,0,1-2.9-.06c0-.22,0-.45,0-.67Z"/><path class="cls-1" d="M369.16,181V171c0-.18,0-.36,0-.54a1,1,0,0,1,1.8-.88,2.56,2.56,0,0,1,.52.52c.43.55.83,1.12,1.25,1.67a8,8,0,0,1,1.74,5.43c-.16,3.14,0,6.3,0,9.45a3.49,3.49,0,0,1-.46,1.59,24.54,24.54,0,0,1-2.63,3.91,1.94,1.94,0,0,1-.88.59.87.87,0,0,1-1.19-.56,2.43,2.43,0,0,1-.12-.93Z"/><path class="cls-2" d="M258.82,244.45a7.6,7.6,0,1,1,7.62-7.33A7.6,7.6,0,0,1,258.82,244.45Z"/><path class="cls-2" d="M343.82,132.53a7.59,7.59,0,1,1,7.63-7.58A7.57,7.57,0,0,1,343.82,132.53Z"/><path class="cls-2" d="M251.24,125a7.61,7.61,0,1,1,7.94,7.56A7.62,7.62,0,0,1,251.24,125Z"/><path class="cls-17" d="M343.85,244.45a7.6,7.6,0,1,1,7.6-7.68A7.62,7.62,0,0,1,343.85,244.45Z"/><path class="cls-18" d="M265.87,203.89l-1.81,5.48c-.56,1.7-1.13,3.39-1.67,5.1-.12.4-.31.5-.71.5-2,0-3.95,0-5.93,0a1.5,1.5,0,0,1-1.38-.9c-.3-.53,0-.93.36-1.31A43.56,43.56,0,0,1,265,204.33C265.22,204.2,265.46,204.09,265.87,203.89Z"/><path class="cls-7" d="M265.84,157.91a29.94,29.94,0,0,1-5.81-3.86,53.16,53.16,0,0,1-5.24-4.94c-.37-.39-.73-.8-.43-1.36a1.52,1.52,0,0,1,1.45-.91c2,0,4,0,5.93,0,.35,0,.52.08.63.43q1.68,5.13,3.38,10.27Z"/><path class="cls-7" d="M315.67,146c-.61,2.54-.18,3.87,1.64,5.07a46.64,46.64,0,0,1-5.92,3.15,62.55,62.55,0,0,1-11.75,4,18.82,18.82,0,0,1-5,.35c-.34,0-.47-.09-.37-.49q1.27-5.43,2.51-10.87c.12-.53.51-.43.83-.45l5.32-.22,11.91-.52Z"/><path class="cls-6" d="M324.15,145.6A27.26,27.26,0,0,1,319,150c-.37.24-.7.73-1.21.56a2.54,2.54,0,0,1-1.53-1.43,3.69,3.69,0,0,1-.27-1.91c.14-1.25.32-1.38,1.57-1.42,1.9-.05,3.81-.14,5.71-.21Z"/><path class="cls-19" d="M301,142.81h-2.15c-.4,0-.76-.12-.76-.56s.34-.59.75-.58h4.3c.4,0,.72.13.71.6s-.34.53-.7.54Z"/><path class="cls-7" d="M317.32,210.75a3.8,3.8,0,0,0-1.73,4.66c.16.64-.25.43-.48.42-2.35-.09-4.71-.21-7.06-.31-3.55-.15-7.09-.3-10.64-.43-.4,0-.53-.18-.61-.52-.81-3.56-1.61-7.12-2.47-10.67-.13-.54.05-.61.47-.64a15.09,15.09,0,0,1,3.49.17,52.86,52.86,0,0,1,12.46,3.89A46.28,46.28,0,0,1,317.32,210.75Z"/><path class="cls-6" d="M324,216.05h-4.73c-.81,0-1.62-.05-2.43-.07-.21,0-.38,0-.49-.25a3.32,3.32,0,0,1,1.22-4.4.66.66,0,0,1,.74,0A27.92,27.92,0,0,1,324,216S324,216.1,324,216.05Z"/><path class="cls-13" d="M301,219h2.16c.39,0,.67.12.67.55s-.31.55-.69.55c-1.46,0-2.92,0-4.38,0-.4,0-.69-.15-.68-.56s.29-.56.69-.55C299.52,219,300.26,219,301,219Z"/><path class="cls-7" d="M278.56,146.45c4.06,0,8.13,0,12.2,0,.58,0,.64.16.59.68-.28,3-.51,6-.76,9-.06.67-.12,1.34-.15,2,0,.31-.14.43-.45.42l-8-.1-5.53-.08c-2,0-4.09-.07-6.14-.09a.57.57,0,0,1-.64-.42q-2-5.33-3.91-10.72c-.2-.56.14-.42.41-.42l9.37-.09h3Z"/><path class="cls-19" d="M269.56,141.67h2.15c.42,0,.75.19.74.6s-.32.54-.71.54h-4.37c-.37,0-.69-.11-.69-.55s.34-.59.73-.59Z"/><path class="cls-7" d="M265.57,215.06c1.17-3.2,2.31-6.35,3.47-9.49.26-.69.32-1.64.88-2s1.44-.11,2.18-.12l14.29-.15c1.14,0,2.29-.05,3.43-.1.41,0,.59.07.63.53.29,3.69.59,7.39.93,11.07.05.58-.22.54-.6.54-5.82-.08-11.64-.14-17.46-.21l-7.35-.07Z"/><path class="cls-13" d="M269.55,220.11c-.72,0-1.44,0-2.16,0-.38,0-.7-.1-.7-.53s.32-.58.73-.57c1.44,0,2.88,0,4.32,0,.39,0,.7.13.71.54s-.32.58-.74.57c-.72,0-1.44,0-2.16,0Z"/><path class="cls-6" d="M381.73,181.14v19.1c0,.79-.35,1.24-.93,1.21s-.86-.41-.86-1.2v-38.4c0-.44,0-.85.49-1.08a.9.9,0,0,1,1.28.67,4.58,4.58,0,0,1,0,.74Z"/><path class="cls-6" d="M369.72,181c0-3.35,0-6.71,0-10.06,0-.39-.1-.92.35-1.06s.73.28,1,.61c.52.7,1,1.4,1.54,2.12a6.68,6.68,0,0,1,1.31,4.26c-.11,3.23,0,6.48,0,9.72a3.44,3.44,0,0,1-.52,1.57,22.77,22.77,0,0,1-2.42,3.56,1.73,1.73,0,0,1-.46.39c-.39.26-.63.12-.71-.32a4.53,4.53,0,0,1,0-.74Z"/><path class="cls-6" d="M251.82,236.82a7,7,0,1,1,7,7.05A7.07,7.07,0,0,1,251.82,236.82Z"/><path class="cls-6" d="M343.88,132a7,7,0,0,1-7.06-7,7,7,0,1,1,14.06.09A7,7,0,0,1,343.88,132Z"/><path class="cls-6" d="M258.85,132a7,7,0,0,1-7-7,7,7,0,1,1,14.05,0A7,7,0,0,1,258.85,132Z"/><path class="cls-6" d="M343.81,243.87a7,7,0,1,1,7.07-7A7.06,7.06,0,0,1,343.81,243.87Z"/><line class="cls-20" x1="347" y1="124.29" x2="422.47" y2="98.72"/><polygon class="cls-21" points="421.37 102.03 421.6 99.02 419.59 96.77 426.71 97.29 421.37 102.03"/><line class="cls-20" x1="275.57" y1="175.63" x2="158.49" y2="120.95"/><polygon class="cls-21" points="161.57 119.32 159.33 121.34 159.22 124.36 154.43 119.05 161.57 119.32"/><line class="cls-20" x1="355.57" y1="180.89" x2="432.95" y2="180.89"/><polygon class="cls-21" points="430.85 183.66 432.02 180.89 430.85 178.11 437.43 180.89 430.85 183.66"/><line class="cls-20" x1="295.45" y1="119.71" x2="295.45" y2="104.76"/><polygon class="cls-21" points="298.23 106.87 295.45 105.69 292.68 106.87 295.45 100.29 298.23 106.87"/><line class="cls-20" x1="255.93" y1="234.06" x2="161.62" y2="234.06"/><polygon class="cls-21" points="163.73 231.28 162.55 234.06 163.73 236.84 157.14 234.06 163.73 231.28"/></svg>